<?xml version="1.0" encoding="utf-8"?>
<!-- Generator: Adobe Illustrator 16.0.0, SVG Export Plug-In . SVG Version: 6.00 Build 0)  -->
<!DOCTYPE svg PUBLIC "-//W3C//DTD SVG 1.1//EN" "http://www.w3.org/Graphics/SVG/1.1/DTD/svg11.dtd">
<svg version="1.1" id="ffe6bee8-e793-4e33-a4ab-3e285c6a5a44"
	 xmlns="http://www.w3.org/2000/svg" xmlns:xlink="http://www.w3.org/1999/xlink" x="0px" y="0px" width="998.949px"
	 height="833.99px" viewBox="0 0 998.949 833.99" enable-background="new 0 0 998.949 833.99" xml:space="preserve">
<title>blank canvas</title>
<path opacity="0.1" enable-background="new    " d="M323.829,29.66c29.21-26,75.061-31.33,116.801-29.26
	c131.09,6.52,249.42,69.8,351.779,141.39c37.061,25.91,73.54,53.84,97.591,89.53c49,72.65,34.439,173.29-33.641,233.14
	c-23.17,20.36-51.25,36-80.08,49.81c-51.26,24.601-106.57,44.351-164.75,50c-41.479,4-83.479,0.75-124.729-4.84
	c-115.23-15.66-228.32-50.22-323.15-109.34c-41.58-25.93-80.77-58.17-97.909-100.1c-17.141-41.93-6.171-95.13,36.289-120
	c17.561-10.271,38.561-14.91,59.11-19.271c30.26-6.41,61-12.729,88.3-25.76c28.21-13.46,61.6-39.49,56-69.29
	C299.48,83.74,294.66,55.66,323.829,29.66z"/>
<path fill="none" stroke="#535461" stroke-width="2" stroke-miterlimit="10" d="M684.949,668.89c0,0,25.061-44.39,62.79-57.18
	c15.862-5.264,29.589-15.531,39.12-29.26c4.475-6.552,8.338-13.501,11.54-20.76"/>
<path fill="#F8D01F" d="M822.14,553.48c-4.3,4.18-24.33,8.489-24.33,8.489s4.91-19.89,9.21-24.06
	c4.3-4.176,11.17-4.074,15.345,0.225C826.54,542.435,826.44,549.305,822.14,553.48z"/>
<path fill="#F8D01F" d="M810.81,589.47c-5.88,1.17-25-6.09-25-6.09s14.94-14,20.81-15.2c5.88-1.168,11.592,2.651,12.761,8.53
	c1.168,5.879-2.651,11.592-8.53,12.76l0,0H810.81z"/>
<path fill="#F8D01F" d="M769.56,628.41c-5.67-2-18.54-17.9-18.54-17.9s20-4.56,25.64-2.6c5.705,1.835,8.841,7.947,7.006,13.651
	s-7.947,8.841-13.651,7.006C769.862,628.518,769.71,628.466,769.56,628.41z"/>
<path fill="#F8D01F" d="M731.709,650.85c-5.909-1-21.289-14.51-21.289-14.51s18.909-7.88,24.819-6.9
	c5.922,0.92,9.977,6.465,9.058,12.386c-0.919,5.922-6.464,9.977-12.385,9.058C731.844,650.873,731.777,650.861,731.709,650.85
	L731.709,650.85z"/>
<path fill="#F8D01F" d="M769.07,567.84c0,6,10.84,23.37,10.84,23.37s10.86-17.37,10.86-23.36c0-5.992-4.857-10.85-10.85-10.85
	s-10.851,4.857-10.851,10.85V567.84z"/>
<path fill="#F8D01F" d="M725.14,594.64c1.8,5.721,17.34,19.061,17.34,19.061s5.16-19.83,3.37-25.55
	c-1.792-5.72-7.881-8.902-13.6-7.11C726.531,582.832,723.348,588.921,725.14,594.64z"/>
<path fill="#F8D01F" d="M686.02,626.54c0.8,5.94,13.87,21.72,13.87,21.72s8.439-18.67,7.64-24.609
	c-0.798-5.94-6.26-10.108-12.2-9.311C689.39,615.138,685.222,620.601,686.02,626.54z"/>
<path opacity="0.25" enable-background="new    " d="M822.14,553.48c-4.3,4.18-24.33,8.489-24.33,8.489s4.91-19.89,9.21-24.06
	c4.3-4.176,11.17-4.074,15.345,0.225C826.54,542.435,826.44,549.305,822.14,553.48z"/>
<path opacity="0.25" enable-background="new    " d="M810.81,589.47c-5.88,1.17-25-6.09-25-6.09s14.94-14,20.81-15.2
	c5.88-1.168,11.592,2.651,12.761,8.53c1.168,5.879-2.651,11.592-8.53,12.76l0,0H810.81z"/>
<path opacity="0.25" enable-background="new    " d="M769.56,628.41c-5.67-2-18.54-17.9-18.54-17.9s20-4.56,25.64-2.6
	c5.705,1.835,8.841,7.947,7.006,13.651s-7.947,8.841-13.651,7.006C769.862,628.518,769.71,628.466,769.56,628.41z"/>
<path opacity="0.25" enable-background="new    " d="M731.709,650.85c-5.909-1-21.289-14.51-21.289-14.51s18.909-7.88,24.819-6.9
	c5.922,0.92,9.977,6.465,9.058,12.386c-0.919,5.922-6.464,9.977-12.385,9.058C731.844,650.873,731.777,650.861,731.709,650.85
	L731.709,650.85z"/>
<path opacity="0.25" enable-background="new    " d="M769.07,567.84c0,6,10.84,23.37,10.84,23.37s10.86-17.37,10.86-23.36
	c0-5.992-4.857-10.85-10.85-10.85s-10.851,4.857-10.851,10.85V567.84z"/>
<path opacity="0.25" enable-background="new    " d="M725.14,594.64c1.8,5.721,17.34,19.061,17.34,19.061s5.16-19.83,3.37-25.55
	c-1.792-5.72-7.881-8.902-13.6-7.11C726.531,582.832,723.348,588.921,725.14,594.64z"/>
<path opacity="0.25" enable-background="new    " d="M686.02,626.54c0.8,5.94,13.87,21.72,13.87,21.72s8.439-18.67,7.64-24.609
	c-0.798-5.94-6.26-10.108-12.2-9.311C689.39,615.138,685.222,620.601,686.02,626.54z"/>
<path fill="none" stroke="#535461" stroke-width="2" stroke-miterlimit="10" d="M686.39,667.99c0,0,4.92-50.74,34.24-77.721
	c12.366-11.243,20.753-26.194,23.899-42.609c1.439-7.808,2.156-15.731,2.141-23.67"/>
<path fill="#F8D01F" d="M765.039,506.91c-2.239,5.56-18.8,17.62-18.8,17.62s-3.56-20.181-1.319-25.73
	c2.098-5.612,8.35-8.462,13.962-6.363c5.613,2.098,8.462,8.35,6.364,13.962C765.182,506.57,765.113,506.741,765.039,506.91z"/>
<path fill="#F8D01F" d="M769.27,544.4c-4.9,3.449-25.36,4.569-25.36,4.569s8-18.87,12.87-22.319
	c4.901-3.449,11.671-2.271,15.12,2.63S774.171,540.951,769.27,544.4L769.27,544.4z"/>
<path fill="#F8D01F" d="M747.34,596.72c-6,0.5-24.2-8.859-24.2-8.859s16.41-12.261,22.34-12.771
	c5.973-0.502,11.223,3.933,11.725,9.905c0.503,5.973-3.932,11.223-9.904,11.725H747.34z"/>
<path fill="#F8D01F" d="M721.829,632.57c-5.8,1.5-25.34-4.641-25.34-4.641s14.09-14.87,19.891-16.37
	c5.769-1.62,11.759,1.742,13.38,7.512c1.621,5.769-1.742,11.759-7.512,13.38c-0.139,0.039-0.278,0.075-0.419,0.108V632.57z"/>
<path fill="#F8D01F" d="M722.35,541.53c2.42,5.479,19.38,17,19.38,17s2.89-20.28,0.46-25.761c-2.53-5.432-8.984-7.784-14.416-5.254
	c-5.285,2.461-7.68,8.659-5.424,14.034V541.53z"/>
<path fill="#F8D01F" d="M693.05,583.84c3.95,4.5,23.569,10.4,23.569,10.4s-3.31-20.221-7.27-24.721
	c-3.877-4.568-10.725-5.129-15.293-1.252c-4.569,3.878-5.13,10.725-1.252,15.294C692.885,583.655,692.967,583.748,693.05,583.84
	L693.05,583.84z"/>
<path fill="#F8D01F" d="M670.209,628.86c3.141,5.109,21.48,14.229,21.48,14.229s0.15-20.479-3-25.59
	c-3.137-5.105-9.819-6.702-14.925-3.565c-5.106,3.138-6.702,9.819-3.565,14.926H670.209z"/>
<ellipse opacity="0.1" enable-background="new    " cx="374.17" cy="814.05" rx="118.88" ry="19.93"/>
<ellipse opacity="0.1" enable-background="new    " cx="608.159" cy="661.06" rx="118.88" ry="19.93"/>
<polygon fill="#B77B7F" points="616.05,398.03 615.94,401.92 609.18,640.44 597.82,640.44 603.39,401.92 603.5,397.43 "/>
<polygon fill="#DDA2A6" points="681.82,600.09 673.31,600.07 546.869,599.8 540.13,599.79 543.72,588.73 680.92,588.73 "/>
<polygon opacity="0.1" enable-background="new    " points="616.05,398.03 615.94,401.92 603.39,401.92 603.5,397.43 "/>
<rect x="599.77" y="392.2" fill="#B77B7F" width="21.07" height="7.93"/>
<polygon opacity="0.1" enable-background="new    " points="547.99,588.73 546.869,599.8 540.13,599.79 543.72,588.73 "/>
<polygon fill="#DDA2A6" points="566.14,392.05 565.789,395.49 537.74,672.13 524.89,671.52 554.449,395.49 554.78,392.35 "/>
<polygon opacity="0.1" enable-background="new    " points="681.82,600.09 673.31,600.07 672.159,588.73 680.92,588.73 "/>
<polygon fill="#DDA2A6" points="695.27,671.52 682.409,672.13 654.369,395.49 654.02,392.05 665.369,392.35 665.699,395.49 "/>
<rect x="466.6" y="119.3" fill="#FFFFFF" width="283.359" height="271.7"/>
<path fill="#DDA2A6" d="M613.81,28.43v65.61h-11.05V28.43c-0.13-3.052,2.238-5.63,5.289-5.76c3.052-0.13,5.631,2.238,5.761,5.29
	C613.817,28.116,613.817,28.273,613.81,28.43z"/>
<rect x="602.75" y="88.07" opacity="0.1" enable-background="new    " width="11.06" height="5.97"/>
<path fill="#DDA2A6" d="M618.15,92.55v21.66h-19.67V92.55c-0.006-1.48,1.189-2.684,2.67-2.69c0.007,0,0.014,0,0.021,0h14.31
	C616.957,89.871,618.15,91.072,618.15,92.55z"/>
<circle opacity="0.1" enable-background="new    " cx="608.28" cy="103.61" r="4.18"/>
<circle fill="#B77B7F" cx="608.28" cy="102.71" r="4.18"/>
<rect x="598.42" y="111.53" opacity="0.1" enable-background="new    " width="19.729" height="2.689"/>
<rect x="590.35" y="115.12" opacity="0.1" enable-background="new    " width="35.87" height="5.98"/>
<rect x="590.35" y="113.32" fill="#DDA2A6" width="35.87" height="5.98"/>
<path opacity="0.1" enable-background="new    " d="M535.72,384h150.649c3.59,0,6.5,2.91,6.5,6.5v1.42l0,0H529.22l0,0v-1.42
	C529.22,386.91,532.13,384,535.72,384z"/>
<polygon opacity="0.1" enable-background="new    " points="554.78,392.35 566.14,392.05 565.789,395.49 554.449,395.49 "/>
<rect x="599.77" y="392.2" opacity="0.1" enable-background="new    " width="21.07" height="3.29"/>
<polygon opacity="0.1" enable-background="new    " points="665.699,395.49 654.369,395.49 654.02,392.05 665.369,392.35 "/>
<path fill="#DDA2A6" d="M535.72,385.77h150.649c3.59,0,6.5,2.91,6.5,6.5v1.42l0,0H529.22l0,0v-1.42
	C529.22,388.68,532.13,385.77,535.72,385.77z"/>
<linearGradient id="SVGID_1_" gradientUnits="userSpaceOnUse" x1="636.7522" y1="-203.3125" x2="636.7522" y2="482.73" gradientTransform="matrix(1 0 0 -1 -238.1201 621.1406)">
	<stop  offset="0" style="stop-color:#808080;stop-opacity:0.25"/>
	<stop  offset="0.54" style="stop-color:#808080;stop-opacity:0.12"/>
	<stop  offset="1" style="stop-color:#808080;stop-opacity:0.1"/>
</linearGradient>
<path fill="url(#SVGID_1_)" d="M502.69,259.63c-2.27-1.2-27-19.88-27-19.88l-39.91-25.31c0,0-0.21-0.6-0.59-1.63
	c10.95-12.43,8.561-30.47-2.58-43.15c-13.5-15.38-74.5-48.49-92.88-20.17c-2.57,4-2.66,8.54-3.33,12.94
	c-1.57,10.27-6.63,20.22-14.57,28.6c-6.119,6.47-14.149,12.43-17.67,19.75c0-0.09-0.069-0.18-0.1-0.28
	c-0.85,1.569-1.466,3.253-1.83,5c-1.75,8.93,4.25,17.49,7.44,26.18c1.07,2.942,1.848,5.984,2.319,9.08
	c0.08-0.62,0.15-1.23,0.221-1.85c0.777,4.408,1.042,8.891,0.79,13.36c-22.15,4.51-22.16,42.4-22.16,42.4s-2.73,15.06-2.271,20.49
	c0.461,5.43,0.45,17.17,0.45,20c0,2.83-2.729,20.48-3,22.6c0.003,0.03,0.003,0.06,0,0.09c-0.399,2.32-4.55,13.5,5.48,16
	c0.7,0.18,1.439,0.33,2.21,0.47c0.43,9.05,1.21,28,0.52,32.22c0,0,3.65,25.46,6.68,31.93c1.916,3.794,4.158,7.414,6.7,10.82
	c-0.22,1.55-0.743,3.042-1.54,4.39c-1.55,2.23-0.75,4.061,1.84,4.851c-0.09,0.77-0.189,1.64-0.3,2.62
	c-1.109,9.819-2.77,29.34,0.05,39.229c3.87,13.56,4.101,18.08,4.101,18.08s0,4.06,1.6,6.32c1.601,2.26,4.55,23.279,4.55,26.67
	c0,3.39,7.74,33.89,5.46,41.12c-2.279,7.229-0.449,17.399-0.449,17.399s-1.37,17.851-3,21.69c-1.631,3.84-2.28,65.75,0.22,81.79
	s4.1,29.37,4.1,29.37s-1.59,14.689-0.229,16.72c1.359,2.03,3.87,14.24,2.05,14.91s-2.73,5.649-2.73,5.649
	c0.963,1.463,2.001,2.875,3.11,4.23c-0.701-0.245-1.387-0.536-2.05-0.87c0.72,1,1.8,2.42,3.13,4l-1.25,16.25
	c-0.108,1.308,0.733,2.507,2,2.85c8.136,2.212,16.829-0.232,22.62-6.359c11.38-11.521,15.25-9.94,17.3-16.94
	c0.22-0.75,0.41-1.49,0.57-2.189c1.47-6.24-5.181-10.881-10.471-8.221c0.73-4.939,1.301-10.55,0.75-13.72
	c-1.14-6.55-0.909-23.72-0.909-23.72l-1.591-82.25c0,0,2.95-16.271,6.37-22.59c3.42-6.32,3-28.471,3-28.471l3.87-72.76l3.641-35.47
	c0,0,3.64-12.2,8.189,1.36c0,0-2.5,27.329-1.359,33.89c1.14,6.56,2.729,38.41,1.59,45.41c-1.141,7-6.141,45.42-3,55.13
	c3.14,9.71,6.64,21.479,5.939,25.33c-0.7,3.85-3,87.21-3,87.21s6.15,16,1.601,21.24c-4.551,5.239-0.23,26-0.23,26
	s0.55,0.39,1.49,0.93l-0.13,1.729l-1.431,18.69c-0.104,1.31,0.734,2.51,2,2.86c8.137,2.214,16.83-0.231,22.62-6.36
	c11.38-11.53,15.25-9.94,17.3-16.95c0.221-0.75,0.41-1.479,0.58-2.189c1.601-6.811-6.5-11.75-11.92-7.301l-0.27,0.23
	c-0.283,0.24-0.58,0.464-0.891,0.67c-0.144,0.105-0.294,0.203-0.449,0.29c1.14-5.16,2.8-14,2-18.14
	c-1.141-6.101,1.13-24.62,1.13-24.62s6.6-22.15,6.83-31l1.819-70.49c0,0-0.22-28.7,0.69-35.7s8.19-67.56,15.47-85.64
	c5.59-13.841,8.09-49.16,6.61-67.07c-0.08-0.88-0.16-1.73-0.26-2.52c8.93-6.591,9.819-17.551,9.819-17.551s-8.2-15.659-16.09-22.29
	s-9.59-18.03-9.31-22.88c0.134-2.956-0.84-5.854-2.73-8.13c0,0-3.64-11.75-6.069-12.95c-0.199-0.101-0.379-0.237-0.53-0.4
	c-1.65-1.77-0.38-6.83-0.38-6.83v-0.16c0.29-1.17,2-8.75,1.489-10.69c-0.609-2.1,0.301-12.05,0.301-12.05s5.77-17.17,4.859-30.73
	c-0.91-13.56,11.84-12.35,11.84-12.35l39.37-0.41h4.48c1.58-1.341,3.023-2.835,4.31-4.46c7.5-0.89,22.67-3.72,24.37-12
	C514.38,271.99,504.97,260.84,502.69,259.63z M320.289,384.99l0.271-6.89c0.93,0.8,1.55,1.31,1.55,1.31
	c0.502,1.803,0.526,3.705,0.07,5.52c-0.495,1.727-1.751,3.133-3.41,3.82c-0.19,0.083-0.374,0.18-0.55,0.29l-0.38-3.89
	L320.289,384.99z M463.09,263.99c-1.67-0.75-7.29-0.6-10.181-0.6c-2.89,0-7.58-2.41-7.58-2.41c-1-1.95-6.529-3.11-11.449-3.77
	c-3.74-9.22-9-18.21-9.71-27.82c0-0.35,0-0.7-0.051-1.05l0.57,1c0,0,22.92,14.62,25.5,19c2,3.34,11.63,10.8,16.09,14.14
	c-0.614,0.801-1.475,1.377-2.45,1.64C463.575,264.147,463.32,264.103,463.09,263.99z"/>
<path fill="#67647E" d="M425.24,798.21c-0.17,0.7-0.35,1.43-0.569,2.17c-2,7-5.83,5.38-17,16.81
	c-5.673,6.081-14.249,8.515-22.271,6.32c-1.268-0.335-2.111-1.533-2-2.84l1.41-18.54l0.67-8.92c0,0,17.84,5,26.92-1.35
	c0.305-0.208,0.599-0.432,0.88-0.67c0.07-0.063,0.137-0.13,0.2-0.2c3.102-2.567,7.697-2.135,10.265,0.967
	C425.185,793.696,425.737,796.006,425.24,798.21z"/>
<path fill="#67647E" d="M369.24,791.21c-0.17,0.7-0.35,1.43-0.569,2.17c-2,7-5.83,5.38-17,16.81
	c-5.673,6.081-14.249,8.515-22.271,6.32c-1.268-0.335-2.111-1.533-2-2.84l1.41-18.54l0.67-8.92c0,0,17.84,5,26.92-1.35
	c0.305-0.208,0.599-0.432,0.88-0.67c0.07-0.063,0.137-0.13,0.2-0.2c3.102-2.567,7.696-2.135,10.265,0.967
	C369.185,786.696,369.737,789.006,369.24,791.21z"/>
<path opacity="0.1" enable-background="new    " d="M350.81,793.99l0.72,9.64c-10.24,10.23-22.43-5-26-10
	C334.92,798.47,350.81,793.99,350.81,793.99z"/>
<path opacity="0.1" enable-background="new    " d="M411,797.91l1.34-0.891c-9.351,14.221-23.24,7.66-27.57,5.11l0.67-8.92
	c0,0,17.84,5,26.92-1.35C411.65,795.34,411,797.91,411,797.91z"/>
<path fill="#444053" d="M439.48,528.68c-7.18,17.931-14.35,78-15.25,85s-0.67,35.42-0.67,35.42l-1.8,69.891
	c-0.23,8.75-6.73,30.72-6.73,30.72s-2.239,18.38-1.12,24.43c1.12,6.05-2.909,22-2.909,22l1.34-0.899
	c-11.21,17-28.92,4.26-28.92,4.26s-4.261-20.62,0.229-25.78s-1.57-21.069-1.57-21.069s2.24-82.721,2.91-86.53
	c0.67-3.811-2.689-15.47-5.83-25.11c-3.14-9.64,1.801-47.75,2.921-54.7c1.119-6.95-0.45-38.56-1.57-45.06s1.34-33.63,1.34-33.63
	c-4.48-13.45-8.07-1.34-8.07-1.34l-3.59,35.189l-3.81,72.19c0,0,0.45,22-2.91,28.25s-6.28,22.41-6.28,22.41l1.57,81.609
	c0,0-0.22,17,0.899,23.53c1.12,6.53-2.47,23.32-2.47,23.32c-12.55,29.569-32.71-2.49-32.71-2.49s0.9-4.93,2.69-5.6
	c1.79-0.671-0.67-12.78-2-14.801c-1.33-2.02,0.22-16.59,0.22-16.59s-1.57-13.22-4-29.14s-1.79-77.34-0.22-81.15
	c1.569-3.81,2.909-21.52,2.909-21.52s-1.79-10.09,0.45-17.271c2.24-7.18-5.38-37.43-5.38-40.8s-2.91-24.21-4.479-26.45
	c-1.57-2.24-1.57-6.28-1.57-6.28s-0.22-4.479-4-17.93c-2.78-9.82-1.14-29.18-0.05-38.93c0.39-3.61,0.729-5.91,0.729-5.91
	s128.57-20.85,133.7-16.14c1.2,1.109,2,4.92,2.47,10.35C447.48,479.89,444.96,514.99,439.48,528.68z"/>
<path opacity="0.1" enable-background="new    " d="M390.82,629.48c0.601,0,14.8,1.199,20,0.149S390.82,629.48,390.82,629.48z"/>
<path opacity="0.1" enable-background="new    " d="M391.869,637.85c0,0,19.61,3.44,20.61,1.65S391.869,637.85,391.869,637.85z"/>
<path opacity="0.1" enable-background="new    " d="M331.94,634.26c0,0,10.16,0.45,15.69,3
	C353.159,639.81,331.94,634.26,331.94,634.26z"/>
<path fill="#EFB7B9" d="M295.02,382.89c0,0,1.641,31.23,0.75,36.759c0,0,3.58,25.261,6.57,31.681c2.989,6.42,9.42,14.5,9.42,14.5
	l8.819-62l-2.1-21.24L295.02,382.89z"/>
<circle fill="#EFB7B9" cx="387.68" cy="206.09" r="34.52"/>
<path fill="#EFB7B9" d="M369.75,222.22c0,0-10.761,21.08-21.521,30.94c-10.76,9.86,64.56,21.07,66.35,21.07
	s-13.449-44.83-10.76-50.24C406.51,218.58,369.75,222.22,369.75,222.22z"/>
<path opacity="0.1" enable-background="new    " d="M445.97,462.13c-1.69,1.291-3.556,2.335-5.54,3.101
	c-13.74,5.38-28.69,12.85-38.851,9.869c-10.159-2.979-31.68,0-31.68,0s-43.35-3.59-52-1.5c-3.939,0.95-7,0.91-9,0.23
	c0.39-3.61,0.73-5.91,0.73-5.91s128.72-20.85,133.85-16.14C444.699,452.89,445.48,456.7,445.97,462.13z"/>
<path fill="#F8D01F" d="M455.38,442.21c0,0-1.19,14.95-14.95,20.33s-28.69,12.85-38.851,9.87c-10.159-2.98-31.68,0-31.68,0
	s-43.35-3.59-52-1.5c-8.649,2.09-13.16-0.59-10.47-4.48c2.689-3.89,2.399-16.739,2.399-22.12c0-5.38-3-27.2-0.31-31.09
	c2.69-3.89,5.08-18.83,10.46-21.229c1.637-0.689,2.872-2.083,3.36-3.79c0.444-1.8,0.42-3.683-0.07-5.47c0,0-0.91-0.75-2.16-1.86
	c-3.17-2.83-8.53-8.08-6.81-9.8c2.39-2.4,0-17.94,0-17.94s-5.681-11.95-3.58-16.43c2.1-4.48-18.24-28.1-18.24-28.1
	s0-40.64,24.51-42.44c0,0,17.34,0.6,19.431-7.17c2.09-7.77,15.84-12.26,15.84-12.26l31.39,6.88c0,0,27.79,6,32.88,2.39
	s9,4.78,9,4.78s17.33,0.9,19.12,4.49s-5.67,38.55-5.67,38.55s-12.56-1.19-11.66,12.26c0.9,13.45-4.84,30.49-4.84,30.49
	s-0.9,9.86-0.3,11.95c0.56,1.93-1.18,9.45-1.46,10.61v0.15c0,0-1.25,5,0.37,6.78c0.149,0.161,0.325,0.296,0.52,0.4
	c2.4,1.19,6,12.85,6,12.85c1.866,2.263,2.825,5.14,2.69,8.07c-0.29,4.79,1.5,16.14,9.27,22.721
	C447.34,426.68,455.38,442.21,455.38,442.21z"/>
<path fill="#F8D01F" d="M322.07,372.99v1.27l-0.54,14c0,0-18.39,1.49-28.399-1c-10.01-2.49-5.8-13.6-5.4-15.9
	c0.004-0.03,0.004-0.06,0-0.09c0.29-2.1,3-19.58,3-22.42c0-2.84,0-14.5-0.45-19.88c-0.449-5.38,2.2-20.37,2.2-20.37l1.94-2.38
	l21.06,8.07L322.07,372.99z"/>
<path opacity="0.1" enable-background="new    " d="M322.02,374.29l-0.54,14c0,0-18.39,1.49-28.399-1
	c-10.011-2.49-5.801-13.6-5.4-15.9L322.02,374.29z"/>
<path opacity="0.1" enable-background="new    " d="M323.34,388.21c0.444-1.799,0.42-3.683-0.07-5.47c0,0-0.91-0.75-2.16-1.86
	c15.83-2.21,78.521-10.81,99.63-11.75v0.15c0,0-1.25,5,0.37,6.78L323.34,388.21z"/>
<path opacity="0.1" enable-background="new    " d="M423.1,398.99c0,0,3.89,22-10.61,29.74
	C412.48,428.77,420.71,417.86,423.1,398.99z"/>
<path opacity="0.1" enable-background="new    " d="M328.199,429.36c0,0,35-6,41.851-1.341
	C376.9,432.68,328.199,429.36,328.199,429.36z"/>
<path opacity="0.1" enable-background="new    " d="M411,293.21c0,0-5.381,22.12-1.351,27.2S411,293.21,411,293.21z"/>
<path opacity="0.1" enable-background="new    " d="M309.67,275.13c0,0,4.93,8.22,1.939,16.74S309.67,275.13,309.67,275.13z"/>
<path opacity="0.1" enable-background="new    " d="M299.48,347.17c0,0,6.28,3.73,4.19,9.56
	C301.579,362.56,299.48,347.17,299.48,347.17z"/>
<path opacity="0.1" enable-background="new    " d="M298.909,330.13c0,0,5.82,3.14,6.57,7.77S298.909,330.13,298.909,330.13z"/>
<path opacity="0.1" enable-background="new    " d="M385.289,508.87c0,0,36.62,3.74,43.94-4.93
	C429.23,503.99,396.199,510.52,385.289,508.87z"/>
<path opacity="0.1" enable-background="new    " d="M322.07,506.78c0,0,39.311,9.27,47.08,1.939
	C369.15,508.72,335.369,511.26,322.07,506.78z"/>
<path opacity="0.1" enable-background="new    " d="M388.13,520.99c0,0,16.439,0,24.06,0.45
	C419.81,521.89,388.13,520.99,388.13,520.99z"/>
<path opacity="0.1" enable-background="new    " d="M324.76,527.99c0,0,8.069,9.12,17.189,7.479
	C351.07,533.83,324.76,527.99,324.76,527.99z"/>
<path fill="#2F2E41" d="M340.61,154.64c-2.53,3.93-2.62,8.48-3.28,12.84c-1.54,10.19-6.529,20.06-14.34,28.38
	c-7.17,7.62-17,14.53-18.859,23.84c-1.761,8.84,4.21,17.35,7.34,26c8.25,22.69-3.271,46.49-6.63,69.91
	c-0.931,6.47,0.189,14.74,8.16,16.89c2.489,0.68,5.34,0.59,7.579,1.67c3,1.44,3.921,4.43,4.471,7.12
	c2.006,9.622,2.698,19.472,2.06,29.28c-0.359,5.5-0.76,11.83,4.44,15.61c2.359,1.73,5.54,2.61,8.609,3.44
	c8.19,2.21,18.78,4,24.301-1.19c2.319-2.17,3.189-5.23,6.079-6.95c4.33-2.57,10.471-0.83,15.921-0.56
	c11.189,0.56,21.47-6,25.88-13.91c4.41-7.91,4-17,2.399-25.53c-1.6-8.53-4.46-17-4.66-25.66c-0.069-3,0.2-6.05,1.921-8.71
	c3.329-5.15,11.079-7.49,16.38-11.54c9.93-7.6,9.899-20.05,6.29-30.47c-3.61-10.42-10.091-20.41-10.891-31.18
	c-0.356-2.604,0.16-5.252,1.47-7.53c1.421-2.19,3.9-3.83,6-5.64c14.49-12.24,12.78-32.34,0.801-46.1
	C418.789,159.4,358.71,126.55,340.61,154.64z"/>
<g opacity="0.1">
	<path d="M313.31,255.12c1.13-9.09,0.92-18.1-2.29-26.95c-1.58-4.34-3.87-8.65-5.54-13c-0.834,1.573-1.44,3.256-1.8,5
		c-1.76,8.84,4.21,17.35,7.34,26C312.073,249.071,312.84,252.069,313.31,255.12z"/>
	<path d="M326.659,353.04c0.638-9.808-0.052-19.657-2.05-29.28c-0.56-2.69-1.479-5.67-4.479-7.11c-2.24-1.08-5.091-1-7.58-1.67
		c-3.101-0.743-5.684-2.876-7-5.78c-0.46,2.28-0.86,4.55-1.19,6.83c-0.93,6.47,0.19,14.74,8.16,16.89c2.49,0.67,5.34,0.58,7.58,1.66
		c3,1.44,3.92,4.43,4.479,7.12c0.918,4.463,1.559,8.978,1.921,13.52C326.57,354.48,326.61,353.76,326.659,353.04z"/>
	<path d="M411.9,349.49c-4.42,7.94-14.7,14.47-25.89,13.91c-5.45-0.28-11.59-2-15.91,0.56c-2.891,1.71-3.771,4.78-6.09,6.95
		c-5.521,5.15-16.11,3.4-24.3,1.19c-3.07-0.84-6.24-1.71-8.61-3.44c-2.259-1.661-3.783-4.136-4.25-6.9c0.06,3.07,0,6.15-0.19,9.22
		c-0.359,5.5-0.76,11.83,4.44,15.62c2.37,1.72,5.54,2.6,8.61,3.43c8.189,2.21,18.779,4,24.3-1.19c2.319-2.17,3.2-5.23,6.09-7
		c4.32-2.57,10.46-0.83,15.91-0.56c11.189,0.56,21.47-6,25.89-13.91c4.24-7.64,4.05-16.28,2.57-24.53
		C413.912,345.161,413.048,347.397,411.9,349.49z"/>
	<path d="M430.84,203.27c-2.141,1.8-4.62,3.45-6,5.64c-1.311,2.278-1.827,4.926-1.471,7.53c0.291,3.272,0.982,6.497,2.061,9.6
		c1.665-1.776,3.489-3.396,5.45-4.84c9.8-8.27,12.18-20.14,9-31.22C438.201,195.185,435.064,199.797,430.84,203.27z"/>
	<path d="M427.93,278.04c-5.29,4.05-13.05,6.4-16.37,11.55c-1.73,2.66-2,5.73-1.93,8.7c0.123,3.497,0.551,6.977,1.279,10.4
		c0.189-0.405,0.407-0.795,0.65-1.17c3.32-5.15,11.08-7.49,16.37-11.54c9.07-6.94,9.83-17.92,7.149-27.71
		C433.72,272.165,431.231,275.566,427.93,278.04z"/>
</g>
<path fill="#EFB7B9" d="M482.28,299.34c0,0,25.86-1.34,28.101-12.25c2.239-10.91-7-22-9.261-23.17
	c-2.26-1.17-26.64-19.73-26.64-19.73l-39.3-25.1c0,0-18.83-54-23-33.33c-4.17,20.67,12.109,48.12,12.109,48.12
	s22.561,14.5,25.101,18.83s18.09,15.69,18.09,15.69L482.28,299.34z"/>
<path fill="#F8D01F" d="M496.18,281.7c-6.12,15.55-14.05,21.68-14.05,21.68h-4.41l-38.771,0.4l-4.47-12.21l6.28-26.46l3.88,0.16
	c0,0,4.64,2.39,7.47,2.39s8.38-0.15,10,0.59c0.227,0.11,0.481,0.149,0.73,0.11c1.47-0.15,3-2.35,3-2.35S502.31,266.16,496.18,281.7z
	"/>
<path opacity="0.1" enable-background="new    " d="M496.18,281.7c-6.12,15.55-14.05,21.68-14.05,21.68h-4.41
	c2.3-6.16,7.149-18.8,9-21.72c1.81-2.76-14.43-9.63-23.93-13.34c1.47-0.15,3-2.35,3-2.35S502.31,266.16,496.18,281.7z"/>
<ellipse opacity="0.1" enable-background="new    " cx="90.82" cy="763.14" rx="44.181" ry="8.64"/>
<ellipse opacity="0.1" fill="#F8D01F" enable-background="new    " cx="827.28" cy="706.15" rx="32.181" ry="6.29"/>
<ellipse opacity="0.1" fill="#F8D01F" enable-background="new    " cx="966.77" cy="731.64" rx="32.18" ry="6.29"/>
<ellipse opacity="0.1" fill="#F8D01F" enable-background="new    " cx="750.78" cy="784.14" rx="32.181" ry="6.29"/>
<path fill="#F8D01F" d="M132.57,523.3c0,0,7.24,9.47-3.34,23.75s-19.29,26.34-15.75,35.25c0,0,15.95-26.53,28.94-26.899
	C155.41,555.03,146.86,539.26,132.57,523.3z"/>
<path opacity="0.1" enable-background="new    " d="M132.57,523.3c0.634,0.925,1.132,1.935,1.48,3
	c12.67,14.891,19.42,28.78,7.24,29.13c-11.34,0.32-24.95,20.61-28.21,25.73c0.104,0.397,0.234,0.789,0.39,1.17
	c0,0,15.95-26.53,28.94-26.9C155.4,555.06,146.86,539.26,132.57,523.3z"/>
<path fill="#FFD037" d="M146.02,535.36c0,3.33-0.37,6-0.83,6s-0.84-2.7-0.84-6c0-3.301,0.47-1.761,0.93-1.761
	S146.02,531.99,146.02,535.36z"/>
<path fill="#FFD037" d="M150.64,539.34c-2.92,1.59-5.47,2.561-5.689,2.15c-0.221-0.41,2-2,4.89-3.62s1.77-0.43,2,0
	C152.07,538.3,153.56,537.74,150.64,539.34z"/>
<path fill="#F8D01F" d="M94.36,523.3c0,0-7.239,9.47,3.341,23.75c10.579,14.28,19.29,26.34,15.779,35.25c0,0-16-26.53-29-26.899
	C71.48,555.03,80.07,539.26,94.36,523.3z"/>
<path opacity="0.1" enable-background="new    " d="M94.36,523.3c-0.633,0.925-1.132,1.935-1.479,3
	c-12.67,14.891-19.42,28.78-7.24,29.13c11.34,0.32,25,20.61,28.21,25.73c-0.105,0.396-0.232,0.787-0.38,1.17c0,0-16-26.53-29-26.9
	S80.07,539.26,94.36,523.3z"/>
<path fill="#FFD037" d="M80.91,535.36c0,3.33,0.369,6,0.83,6c0.46,0,0.84-2.7,0.84-6c0-3.301-0.471-1.761-0.931-1.761
	S80.91,531.99,80.91,535.36z"/>
<path fill="#FFD037" d="M76.29,539.34c2.93,1.59,5.47,2.561,5.7,2.15c0.229-0.41-2-2-4.9-3.62s-1.771-0.43-2,0
	C74.86,538.3,73.37,537.74,76.29,539.34z"/>
<ellipse opacity="0.1" enable-background="new    " cx="113.46" cy="643.07" rx="75.649" ry="11.61"/>
<path fill="#65617D" d="M152.4,569.55l-0.359,3l-0.511,4.17l-0.21,1.74l-0.51,4.18l-0.22,1.74l-0.51,4.17l-5.78,47.44
	c-0.521,4.24-7.44,7.54-15.8,7.54H98.48c-8.359,0-15.27-3.3-15.79-7.54l-5.79-47.45l-0.51-4.17l-0.21-1.74l-0.52-4.18l-0.21-1.74
	l-0.511-4.17l-0.359-3c-0.29-2.4,3.449-4.42,8.18-4.42h61.52C148.95,565.13,152.7,567.15,152.4,569.55z"/>
<polygon fill="#9D9CB5" points="152.03,572.5 151.53,576.68 75.39,576.68 74.89,572.5 "/>
<polygon fill="#9D9CB5" points="151.31,578.42 150.81,582.59 76.12,582.59 75.61,578.42 "/>
<polygon fill="#9D9CB5" points="150.59,584.33 150.08,588.5 76.84,588.5 76.33,584.33 "/>
<circle opacity="0.1" enable-background="new    " cx="179.99" cy="124.52" r="31.5"/>
<circle opacity="0.1" enable-background="new    " cx="113.99" cy="49.52" r="19.5"/>
<circle opacity="0.1" enable-background="new    " cx="12" cy="93.02" r="12"/>
</svg>
