<?xml version="1.0" encoding="utf-8"?>
<!-- Generator: Adobe Illustrator 16.0.0, SVG Export Plug-In . SVG Version: 6.00 Build 0)  -->
<!DOCTYPE svg PUBLIC "-//W3C//DTD SVG 1.1//EN" "http://www.w3.org/Graphics/SVG/1.1/DTD/svg11.dtd">
<svg version="1.1" id="fd18a2fc-ca24-46a8-bd0b-322c12c0566f"
	 xmlns="http://www.w3.org/2000/svg" xmlns:xlink="http://www.w3.org/1999/xlink" x="0px" y="0px" width="590.818px"
	 height="646.936px" viewBox="0 0 590.818 646.936" enable-background="new 0 0 590.818 646.936" xml:space="preserve">
<circle fill="#D6D4D4" cx="119.021" cy="512.164" r="14.92"/>
<circle fill="#D6D4D4" cx="91.407" cy="519.29" r="10.466"/>
<circle fill="#A3A3A3" cx="112.915" cy="50" r="12"/>
<circle fill="#A3A3A3" cx="544.914" cy="190" r="12"/>
<rect x="111.915" y="277" fill="#A3A3A3" width="20" height="20"/>
<polygon fill="#D6D4D4" points="8.915,130 6.915,130 6.915,0 134.915,0 134.915,2 8.915,2 "/>
<polygon fill="#DDDDDD" points="590.819,130 588.819,130 588.819,2 462.819,2 462.819,0 590.819,0 "/>
<polygon fill="#D6D4D4" points="8.915,240 6.915,240 6.915,370 134.915,370 134.915,368 8.915,368 "/>
<polygon fill="#DDDDDD" points="590.819,240 588.819,240 588.819,368 462.819,368 462.819,370 590.819,370 "/>
<rect x="42.915" y="61" fill="#A3A3A3" width="140" height="2"/>
<rect x="80.915" y="43" fill="#A3A3A3" width="2" height="18.5"/>
<rect x="141.915" y="43" fill="#A3A3A3" width="2" height="18.5"/>
<rect x="420.914" y="202" fill="#A3A3A3" width="140" height="2"/>
<rect x="458.914" y="184" fill="#A3A3A3" width="2" height="18.5"/>
<rect x="519.914" y="184" fill="#A3A3A3" width="2" height="18.5"/>
<rect x="51.915" y="296" fill="#A3A3A3" width="140" height="2"/>
<rect x="89.915" y="278" fill="#A3A3A3" width="2" height="18.5"/>
<rect x="150.915" y="278" fill="#A3A3A3" width="2" height="18.5"/>
<ellipse fill="#3F3D56" cx="296.807" cy="405.437" rx="56" ry="13"/>
<rect x="287.749" y="536.909" transform="matrix(0.9973 -0.0737 0.0737 0.9973 -38.7916 24.668)" fill="#CACACA" width="54.149" height="2.001"/>
<rect x="260.791" y="523.052" transform="matrix(0.482 -0.8762 0.8762 0.482 -332.6741 506.2051)" fill="#CACACA" width="2" height="22.826"/>
<rect x="290.807" y="520.936" fill="#CACACA" width="18" height="2"/>
<polygon fill="#D6D4D4" points="243.805,646.004 241.809,645.868 256.809,416.868 258.805,417.004 "/>
<polygon fill="#DDDDDD" points="317.808,645.985 307.808,434.985 309.806,434.887 319.806,645.887 "/>
<rect x="345.314" y="415.531" transform="matrix(0.9966 -0.0825 0.0825 0.9966 -42.6308 30.3886)" fill="#CACACA" width="2" height="230.786"/>
<polygon fill="#D6D4D4" points="274.807,645.96 272.807,645.912 278.807,434.912 280.807,434.96 "/>
<polygon fill="#FFB6B6" points="265.236,513.691 251.954,521.557 215.29,474.07 234.894,462.459 "/>
<path fill="#2F2E41" d="M276.249,524.56l-42.827,25.365l-0.32-0.542c-5.452-9.206-2.409-21.089,6.796-26.542l0.001-0.001
	l26.158-15.492L276.249,524.56z"/>
<polygon fill="#FFB6B6" points="329.379,513.691 342.659,521.557 379.323,474.07 359.721,462.459 "/>
<path fill="#2F2E41" d="M328.559,507.348l26.157,15.492l0.001,0.001c9.205,5.453,12.248,17.336,6.796,26.542l-0.321,0.542
	l-42.827-25.365L328.559,507.348z"/>
<path fill="#2F2E41" d="M338.507,332.5c0,0-43.336,30.522-85.519,2.979l-0.659,19.199c0,0-90.354,38.32-75.521,68.256
	c14.832,29.938,46,61,46,61l17-14l-19-48l51.682-21.894l45.057,0.228l62.825,25.429l-30,45l26.438,8.237c0,0,63-58,49.5-74.498
	c-10.821-13.228-75.595-42.879-75.595-42.879L338.507,332.5z"/>
<path fill="#F8D01F" d="M353.587,220.527l-37.509-12.434l-9.271-13.158h-27l-7.999,13.366l-34.78,12.226
	c-3.927,1.123-6.378,5.022-5.688,9.047l15.467,127.362l25-2c0,0,33.682,26.28,54-4l1.085-15.271l20.915,20.271l11.466-126.362
	C359.965,225.55,357.514,221.65,353.587,220.527z"/>
<path fill="#2F2E41" d="M324.789,134.16c-11.09-18.739-33.03-19.612-33.03-19.612s-21.38-2.734-35.095,25.805
	c-12.783,26.601-30.426,43.284-2.84,49.511l4.982-15.509l3.086,16.663c3.928,0.283,7.868,0.35,11.803,0.202
	c29.542-0.954,57.677,0.279,56.771-10.322C329.262,166.806,335.461,152.189,324.789,134.16z"/>
<circle fill="#FFB8B8" cx="294.307" cy="160.855" r="29"/>
<polygon fill="#2F2E41" points="320.886,131.353 299.211,119.999 269.277,124.644 263.084,151.997 278.5,151.404 282.807,141.355 
	282.807,151.239 289.921,150.965 294.049,134.966 296.63,151.997 321.92,151.481 "/>
<path opacity="0.2" enable-background="new    " d="M248.989,248l22.5,87.991C271.489,335.991,260.989,259,248.989,248z"/>
<path opacity="0.2" enable-background="new    " d="M316.126,336.991l22.5-87.991C326.626,260,316.126,336.991,316.126,336.991z"/>
<path fill="#FFB6B6" d="M321.365,413.86c4.58-2.418,6.332-8.09,3.914-12.67c-0.258-0.488-0.559-0.953-0.897-1.39l20.427-55.864
	l-15.636-7.961l-18.539,62.543c-3.887,3.467-4.226,9.426-0.758,13.311C312.775,415.08,317.526,415.92,321.365,413.86z"/>
<path fill="#F8D01F" d="M341.102,242.503l-22.79,99.102c-0.457,2.131,0.874,4.234,2.995,4.733l21.947,3.162
	c2.149,0.506,4.304-0.827,4.81-2.978c0.027-0.114,0.049-0.229,0.065-0.346l6.678-103.242L341.102,242.503z"/>
<path fill="#FFB6B6" d="M269.249,415.86c-4.579-2.418-6.332-8.09-3.914-12.67c0.258-0.488,0.56-0.953,0.898-1.39l-20.427-55.864
	l15.636-7.961l18.539,62.543c3.886,3.467,4.225,9.426,0.758,13.311C277.839,417.081,273.089,417.921,269.249,415.86z"/>
<path fill="#F8D01F" d="M249.512,244.503l22.79,99.102c0.456,2.131-0.874,4.234-2.995,4.733L247.36,351.5
	c-2.15,0.506-4.304-0.827-4.811-2.978c-0.026-0.114-0.049-0.229-0.064-0.346l-8.678-103.242L249.512,244.503z"/>
<path fill="#E4E4E4" d="M583.999,646.936H1c-0.553,0-1-0.446-1-1c0-0.552,0.447-1,1-1h582.999c0.554,0,1,0.448,1,1
	C584.999,646.488,584.552,646.936,583.999,646.936z"/>
<path fill="#D6D4D4" d="M501.611,542.779l0.748-1.065c12.836,9.013,22.199,29.061,27.831,59.585
	c2.573,14.258,4.118,28.683,4.622,43.161l-1.302,0.025C533.494,643.681,531.596,563.832,501.611,542.779z"/>
<path fill="#D6D4D4" d="M503.564,600.39l0.748-1.064c13.38,9.394,14.194,43.382,14.222,44.824l-1.302,0.024
	C517.225,643.827,516.405,609.404,503.564,600.39z"/>
<circle fill="#D6D4D4" cx="494.172" cy="535.735" r="6.511"/>
<circle fill="#D6D4D4" cx="497.427" cy="592.382" r="6.511"/>
<path fill="#D6D4D4" d="M526.663,533.303c4.229,9.484,2.492,20.566-4.431,28.306C518.006,552.123,519.74,541.041,526.663,533.303z"
	/>
<path fill="#D6D4D4" d="M486.807,557.132c10.075-2.51,20.686,1.13,27.1,9.296C503.83,568.938,493.221,565.298,486.807,557.132z"/>
<path fill="#D6D4D4" d="M490.208,609.31c7.063-1.759,14.499,0.792,18.994,6.517C502.141,617.584,494.703,615.033,490.208,609.31z"/>
</svg>
